<?xml version="1.0" standalone="no"?>
<!DOCTYPE svg PUBLIC "-//W3C//DTD SVG 20010904//EN"
 "http://www.w3.org/TR/2001/REC-SVG-20010904/DTD/svg10.dtd">
<svg version="1.0" xmlns="http://www.w3.org/2000/svg"
 width="468.000000pt" height="438.000000pt" viewBox="0 0 468.000000 438.000000"
 preserveAspectRatio="xMidYMid meet">

<g transform="translate(0.000000,438.000000) scale(0.100000,-0.100000)"
fill="#000000" stroke="none">
<path d="M775 3995 c-5 -2 -22 -6 -37 -9 -39 -9 -88 -54 -109 -101 -18 -38
-19 -102 -19 -1388 0 -940 3 -1361 11 -1391 7 -28 24 -56 47 -79 24 -23 284
-162 757 -407 770 -399 770 -399 817 -352 23 22 23 25 28 405 l5 382 451 5
450 5 41 27 c24 16 49 44 62 70 21 43 21 55 21 576 l0 532 -190 0 -190 0 0
-389 0 -390 -24 -28 -24 -28 -296 -3 -295 -3 -3 823 c-3 763 -4 825 -21 855
-26 49 -67 76 -267 179 -102 52 -288 148 -413 212 l-228 117 748 3 c517 1 756
-1 774 -9 44 -18 49 -41 52 -249 l2 -195 188 -3 187 -2 0 340 c0 365 -2 384
-53 438 -57 61 31 57 -1272 59 -655 1 -1194 0 -1200 -2z"/>
<path d="M3570 3515 c-74 -34 -113 -92 -113 -170 0 -28 8 -66 18 -85 9 -19 83
-101 163 -182 l147 -148 -550 0 c-512 0 -553 -2 -590 -19 -150 -68 -153 -294
-5 -368 l44 -23 550 0 551 0 -147 -147 c-80 -82 -154 -164 -163 -183 -22 -43
-23 -126 -2 -165 20 -39 65 -81 100 -94 43 -16 107 -13 152 8 55 26 688 662
710 713 8 21 15 52 15 70 -1 73 -30 110 -363 442 -178 178 -338 331 -356 340
-47 25 -119 29 -161 11z"/>
</g>
</svg>
